:SAMPLES-PER-SECOND 30
:FULLY-SPECIFIED
:DEGREES
727
root  14.0021 40.6587 9.89102 168.284 83.8865 170.72
RightUpLeg  2.80678 -11.6639 -12.1987
RightLeg  5.1058 -14.3088 2.70879
RightFoot  0.619639 -0.439211 4.23843
RightToes  0.000481921 0.542163 -0.142578
Spine  -0.971296 3.80411 8.24542
Spine1  15.2053 6.8683 -8.92719
HEad  14.3542 -13.8912 5.5769
LeftShoulder1  10.3578 -15.766 -46.9017
LeftArm  -5.16617 12.9965 -24.64
LeftForeArm  174.202 -57.2373 -164.856
LeftHand  -0.25398 0.0180481 5.50724
RightShoulder  1.88172 5.87938 13.0917
RightArm  -11.0256 73.9122 57.5323
RightForeArm  -10.876 -6.21921 3.50341
RightHand  -2.06794 9.02726 -16.9898
LeftUpLeg  0.867075 7.30567 8.47122
LeftLeg  0.689166 9.42577 -3.27787
LeftFoot  4.19497 0.719568 -5.45903
LeftToes  1.06245e-005 4.65869e-005 -8.65517e-006
728
root  14.0131 40.6585 9.87647 167.595 84.0714 170.049
RightUpLeg  2.78333 -11.7036 -12.2773
RightLeg  5.14232 -14.0717 2.72084
RightFoot  0.601511 -0.444238 4.31166
RightToes  0.000481921 0.542163 -0.142578
Spine  -0.974347 3.76079 8.2706
Spine1  15.1852 6.87527 -9.10545
HEad  14.4308 -13.6721 5.40629
LeftShoulder1  10.3416 -15.7814 -46.7881
LeftArm  -5.33607 13.2276 -24.5187
LeftForeArm  174.194 -57.2878 -164.827
LeftHand  -0.25398 0.0180481 5.50724
RightShoulder  1.88817 5.89601 13.1281
RightArm  -10.5251 73.9858 58.2726
RightForeArm  -10.4417 -6.21722 3.44113
RightHand  -2.10331 9.06502 -17.2217
LeftUpLeg  0.949416 7.27078 8.41418
LeftLeg  0.691914 9.65454 -3.25742
LeftFoot  4.15552 0.715675 -5.44295
LeftToes  1.06245e-005 4.65869e-005 -8.65517e-006
729
root  14.0203 40.6564 9.85995 167.095 84.2729 169.595
RightUpLeg  2.79361 -11.7298 -12.3316
RightLeg  5.14976 -13.8374 2.74221
RightFoot  0.594173 -0.449642 4.39133
RightToes  0.000481921 0.542163 -0.142578
Spine  -0.816947 3.71913 8.29453
Spine1  15.0013 6.8638 -9.23488
HEad  14.5005 -13.4287 5.27551
LeftShoulder1  10.3202 -15.7607 -46.74
LeftArm  -5.36294 13.3191 -24.3079
LeftForeArm  174.178 -57.2544 -164.844
LeftHand  -0.25398 0.0180481 5.50724
RightShoulder  1.9206 5.98733 13.2921
RightArm  -10.4243 73.8234 58.4148
RightForeArm  -10.6212 -6.21648 3.45785
RightHand  -2.2072 9.44274 -17.6029
LeftUpLeg  1.01565 7.25084 8.38711
LeftLeg  0.780746 9.8685 -3.21511
LeftFoot  4.066 0.712816 -5.44828
LeftToes  1.06245e-005 4.65869e-005 -8.65517e-006
730
root  14.0271 40.6542 9.84526 166.649 84.491 169.181
RightUpLeg  2.78852 -11.7449 -12.3596
RightLeg  5.14358 -13.6041 2.76531
RightFoot  0.610151 -0.448817 4.37481
RightToes  0.000481921 0.542163 -0.142578
Spine  -0.71649 3.71893 8.28222
Spine1  14.8988 6.85521 -9.22123
HEad  14.5183 -13.2231 5.169
LeftShoulder1  10.316 -15.7334 -46.7889
LeftArm  -5.32261 13.229 -24.1392
LeftForeArm  174.203 -57.2046 -164.874
LeftHand  -0.25398 0.0180481 5.50724
RightShoulder  1.94785 6.08434 13.3799
RightArm  -10.4117 73.5655 57.9662
RightForeArm  -10.4171 -6.24438 3.59795
RightHand  -2.24742 9.75162 -17.563
LeftUpLeg  1.07486 7.26383 8.39121
LeftLeg  0.866513 10.0611 -3.2014
LeftFoot  3.9709 0.710845 -5.46518
LeftToes  1.06245e-005 4.65869e-005 -8.65517e-006
731
root  14.034 40.6529 9.83465 165.963 84.7163 168.508
RightUpLeg  2.74232 -11.7717 -12.3948
RightLeg  5.16965 -13.3452 2.78484
RightFoot  0.626119 -0.442418 4.27227
RightToes  0.000481921 0.542163 -0.142578
Spine  -0.736847 3.73966 8.22111
Spine1  14.9345 6.84835 -9.12151
HEad  14.5175 -13.0735 5.05472
LeftShoulder1  10.3373 -15.7379 -46.8764
LeftArm  -5.3363 13.1123 -24.0423
LeftForeArm  174.198 -57.1729 -164.891
LeftHand  -0.25398 0.0180481 5.50724
RightShoulder  1.9613 6.16031 13.3573
RightArm  -10.2469 73.2843 57.4272
RightForeArm  -10.1678 -6.28596 3.81352
RightHand  -2.21703 9.74003 -17.3482
LeftUpLeg  1.13943 7.2876 8.39114
LeftLeg  0.905337 10.2589 -3.21983
LeftFoot  3.90434 0.709623 -5.47703
LeftToes  1.06245e-005 4.65869e-005 -8.65517e-006
732
root  14.0412 40.6527 9.82553 165.208 84.9133 167.774
RightUpLeg  2.71787 -11.8034 -12.4414
RightLeg  5.18894 -13.0995 2.80646
RightFoot  0.636329 -0.43845 4.20793
RightToes  0.000481921 0.542163 -0.142578
Spine  -0.740489 3.70412 8.06176
Spine1  14.9097 6.75316 -8.94068
HEad  14.5919 -12.8796 4.90127
LeftShoulder1  10.3776 -15.7665 -46.9922
LeftArm  -5.43072 13.1924 -23.9223
LeftForeArm  174.12 -57.1145 -164.917
LeftHand  -0.25398 0.0180481 5.50724
RightShoulder  1.98494 6.26557 13.383
RightArm  -9.82277 72.8703 57.2819
RightForeArm  -10.3534 -6.32043 4.03814
RightHand  -2.19278 9.57709 -17.3435
LeftUpLeg  1.22219 7.30167 8.38091
LeftLeg  0.912854 10.4412 -3.23907
LeftFoot  3.86394 0.708226 -5.47656
LeftToes  1.06245e-005 4.65869e-005 -8.65517e-006
